<?xml version="1.0" encoding="UTF-8"?>
<!DOCTYPE svg PUBLIC "-//W3C//DTD SVG 1.1//EN" "http://www.w3.org/Graphics/SVG/1.1/DTD/svg11.dtd">
<!-- Creator: CorelDRAW -->
<svg xmlns="http://www.w3.org/2000/svg" xml:space="preserve" width="6.9956mm" height="8.9987mm" style="shape-rendering:geometricPrecision; text-rendering:geometricPrecision; image-rendering:optimizeQuality; fill-rule:evenodd; clip-rule:evenodd"
viewBox="0 0 0.501891 0.645601"
 xmlns:xlink="http://www.w3.org/1999/xlink">
 <defs>
  <style type="text/css">
   <![CDATA[
    .str0 {stroke:white;stroke-width:0.0143488}
    .fil2 {fill:#1F1A17}
    .fil0 {fill:white}
    .fil5 {fill:#009D5D}
    .fil1 {fill:#AE2723}
    .fil4 {fill:#DB2D28}
    .fil3 {fill:#F5D540}
   ]]>
  </style>
 </defs>
 <g id="图层_x0020_1">
  <metadata id="CorelCorpID_0Corel-Layer"/>
  <g id="_37775152">
   <circle id="_188254720" class="fil0 str0" cx="0.251269" cy="0.250702" r="0.231647"/>
   <path id="_189311480" class="fil1" d="M0.250946 0c0.138573,0 0.250946,0.112372 0.250946,0.250946 0,0.0683217 -0.0273344,0.130265 -0.0716362,0.175521l-0.0895866 0.104452 -0.0807836 0.0940347 0.11121 0 0 0.0206479 -0.23042 0 0 -0.0206479 0.101331 0 -0.0807764 -0.0940347 -0.0895937 -0.104452c-0.0443018,-0.045256 -0.0716362,-0.1072 -0.0716362,-0.175521 0,-0.138573 0.112372,-0.250946 0.250946,-0.250946zm0 0.0326363c0.120551,0 0.218309,0.0977582 0.218309,0.218309 0,0.120551 -0.0977582,0.218309 -0.218309,0.218309 -0.120551,0 -0.218309,-0.0977582 -0.218309,-0.218309 0,-0.120551 0.0977582,-0.218309 0.218309,-0.218309z"/>
   <g>
    <g>
     <path id="_188254624" class="fil2" d="M0.242136 0.223453c-0.00580408,0.000789182 -0.0135452,0.0023245 -0.0193278,0.000200883 -0.00635651,-0.00236755 -0.00720308,-0.00569646 -0.00589735,-0.00870253 0.000660043,-0.00144205 0.00194426,-0.0026043 0.0035011,-0.00319978 0.00152814,-0.0005883 0.0031926,-0.000236755 0.00477097,-0.000150662 0.00534492,0.000150662 0.010654,-0.000810706 0.0157334,-0.00175772 0.00419702,-0.000746136 0.00905407,-0.0017649 0.0134376,-0.00231015 0.00355132,-0.000401766 0.0100083,-0.000782008 0.0126269,-0.000911147 0,0 0.0079277,-0.00040894 0.00992935,0.00437638 0,0 0.00121965,0.00312803 -0.000387417,0.00700937 -0.00420419,0.00852317 -0.013,0.0196148 -0.0193995,0.026208 -0.00547406,0.00562472 -0.0111203,0.0109481 -0.0162069,0.0164939l-0.00333609 0.00338631c0.00294867,-0.00107616 0.0108477,-0.00185817 0.0170966,-0.002633 0.0111849,-0.00132009 0.0363383,0.00233885 0.0385193,0.00238907 0.0113929,0.000495033 0.019952,0.00011479 0.0293361,-0.00416114 0.00157836,-0.000918321 0.00363741,-0.000487858 0.00458443,0.000947019 0.000911147,0.00141335 0.000380242,0.0031926 -0.00107616,0.00408223 -0.0109409,0.0096065 -0.0252754,0.010654 -0.0391291,0.0117301 -0.00694481,0.000487858 -0.0404133,0.000731787 -0.0471214,0.00191556 -0.00436203,0.000789182 -0.0175701,0.00374503 -0.0213079,0.00545971 -0.00622019,0.00296302 -0.0107688,0.00112638 -0.0127345,-0.0025756 -0.000968542,-0.00197296 -0.00116225,-0.00431181 -0.000416114,-0.00640673l0.000796357 -0.00185817c0.00379525,-0.00831511 0.010862,-0.0150375 0.017197,-0.0209779l0.00992935 -0.00954911c0.0079277,-0.0075618 0.0160634,-0.0153532 0.0231733,-0.0219823 -0.00447682,0.00131291 -0.0102952,0.00244647 -0.0142914,0.00297737z"/>
     <path id="_188254816" class="fil3" d="M0.187101 0.437401c0.00871688,0.000717439 0.0169961,-0.00332891 0.0246584,-0.00728918 0.0453636,-0.0234818 0.0760915,-0.0386986 0.124806,-0.059985 0.0163576,-0.00714569 0.0323493,-0.0117301 0.0485921,-0.0175414 0.0011479,-0.000301324 0.00186534,-0.00143488 0.00165728,-0.00258278 -0.000337196,-0.00119095 -0.00144205,-0.00190121 -0.00259713,-0.00155684 -0.0713062,0.00709547 -0.135345,0.0411451 -0.198386,0.0724326 -0.00453421,0.000351545 -0.00800661,0.0043405 -0.00764072,0.00891776 0.000351545,0.00457726 0.00432615,0.00801379 0.00891059,0.00760485z"/>
     <path id="_188254888" class="fil2" d="M0.357371 0.272203c0.00081788,-0.00457726 -0.000566776,-0.00694481 -0.00246081,-0.00810706 -0.00230298,-0.00154967 -0.00570364,-7.17439e-005 -0.00724613,0.00240342 -0.00444094,0.00736809 -0.0100154,0.0159271 -0.0139542,0.0240342 -0.00382395,0.000903973 -0.0075905,0.00190121 -0.0113499,0.00276931 -0.00119095,0.000236755 -0.00354415,0.000480684 -0.00457726,2.15232e-005 -0.00141335,-0.000782008 -0.00459878,-0.000990065 -0.00694481,0.0014564 -0.00234602,0.00246081 -0.00261865,0.00564624 0.000681567,0.00799227 0.00312803,0.00223123 0.010202,0.0026617 0.01592,0.00231733 -0.00634933,0.0176059 -0.00919039,0.0365894 -0.00586865,0.0549199 0.00109051,0.00274779 0.00162859,0.00378808 0.00357284,0.00373785 0.00202318,3.58719e-005 0.00360872,-0.00166446 0.00360872,-0.00373785 0.00581843,-0.0208201 0.0101661,-0.0383543 0.0175485,-0.0590165 0.00642825,-0.00223841 0.0128637,-0.00503642 0.0179216,-0.00751158 0.0121749,-0.00597626 0.0186032,-0.00677262 0.0296804,-0.0139901 0.00121965,-0.000645695 0.00180795,-0.00190121 0.00126987,-0.00280518 -0.000451986,-0.000911147 -0.00185099,-0.00116942 -0.00304911,-0.000581125 -0.0133157,0.00358002 -0.0267318,0.00586865 -0.0400618,0.0096926 0.00155684,-0.00382395 0.00457008,-0.00911147 0.00530905,-0.0135955z"/>
     <path id="_188254792" class="fil2" d="M0.198723 0.219206c-0.0093267,0.0170105 -0.0267174,0.0348532 -0.0210999,0.0557306 0.000868101,0.0031639 0.00345088,0.00608388 0.0063852,0.00835098 0.000459161,0.000380242 0.00377373,0.00188686 0.005883,0.000774834 0.00208057,-0.00112638 0.00138466,-0.00419702 0.00169316,-0.00552428 0.00472075,-0.020404 0.022341,-0.0404851 0.0151595,-0.0618002 -0.000796357,-0.00244647 -0.00196578,-0.00299172 -0.004032,-0.0028841 -0.00314956,0.000193708 -0.00327869,0.00415397 -0.00398896,0.00535209z"/>
     <path id="_188254984" class="fil2" d="M0.294473 0.305026c-0.00174338,0.00397461 -0.00530905,0.0104961 -0.0067224,0.0127417 -0.00775551,0.01041 -0.0178212,0.0183162 -0.0285397,0.0256986 0.00205905,-0.0072533 0.00391721,-0.0147864 0.00183664,-0.0222262 0,-1.43488e-005 -0.00075331,-0.00459878 -0.00591887,-0.00878145 0,0 -0.00195861,-0.00158554 -0.00424724,-0.00180795 0,0 -0.00487858,-0.000717439 -0.00977869,0.000839403 -0.00180795,0.000373068 -0.00330022,0.00163576 -0.00343653,0.00293432 -0.000157836,0.00221689 0.00218819,0.00264017 0.00309216,0.00312803 0.00524448,0.00304194 0.00457726,0.00578255 0.00457726,0.00578255 -0.00144205,0.00952041 -0.00632063,0.0182158 -0.00573951,0.0280949 9.3267e-005,0.00231015 0.00109051,0.00453421 0.00109051,0.00453421 0.00109768,0.00274779 0.00292715,0.00487141 0.00497902,0.00611975 0.00392439,0.00217384 0.00717439,0.00155684 0.00717439,0.00155684 0.0156617,-0.00358002 0.0250314,-0.0153675 0.0332676,-0.0283316 0.000645695,0.00892494 0.0041181,0.0175988 0.0129713,0.0216379 0.00238907,0.000796357 0.00388852,0.00139901 0.00540231,-0.000157836 0.00137748,-0.00150662 0.00104746,-0.0022958 0.000373068,-0.00487141 -0.00205905,-0.0122036 -0.00222406,-0.0253256 0.00022958,-0.0378234l0.000186534 -0.00093267c0,0 0.00123399,-0.00680849 -0.000710264,-0.00982173 -0.000645695,-0.00143488 -0.00192991,-0.00242494 -0.00353697,-0.00277649 0,0 -0.00426159,-0.000538079 -0.00655021,0.00446247z"/>
     <path id="_188255056" class="fil2" d="M0.288618 0.193386c-0.000918321,-0.000351545 -0.00188686,-0.000430463 -0.00188686,-0.000430463 -0.00337914,-5.02207e-005 -0.0052086,0.00186534 -0.00562472,0.00457726 0,0 -0.000502207,0.00236755 0.00124117,0.00556015 0.000286975,0.000358719 0.000616997,0.00119095 0.0023245,0.00268322 0,0 0.00190839,0.0017075 0.00443377,0.00184382 0.00250386,0.000272627 0.00743266,0.000509381 0.0133085,-0.000430463 0.00480684,-0.000860926 0.0114001,-0.00199448 0.0183306,-0.00330022 -0.00816445,0.00707394 -0.0163289,0.0136816 -0.0241275,0.0215303 -0.00636368,0.00643542 -0.0133731,0.0118521 -0.0176203,0.0198946 -0.0011766,0.00224558 -0.00140618,0.00462748 -0.00131291,0.00705242 0,0 0.000322847,0.00479966 0.00473509,0.00318543 0.00203035,-0.000789182 0.00707394,-0.00167881 0.00707394,-0.00167881 0.0195143,-0.00378808 0.0407433,0.00390287 0.0585286,-0.0106253 0.00250386,-0.0020447 0.00389569,-0.00363024 0.00335044,-0.00562472 -0.000616997,-0.00209492 -0.00317825,-0.00168598 -0.0052086,-0.000911147 -0.0118593,0.00305629 -0.0239051,-0.000595474 -0.0358002,-0.000215232 0.000344371,-0.000330022 0.000609823,-0.000710264 0.000896798,-0.00106181 0.00856622,-0.00890341 0.0152886,-0.01592 0.0211573,-0.0226567 0.0061628,-0.00705242 0.00690893,-0.00796357 0.00933388,-0.0120817 0,0 0.00357284,-0.0052947 0.00152097,-0.00919756 -0.00199448,-0.00293432 -0.00855904,-0.00648564 -0.0193063,-0.00418984 -0.0248019,0.00531622 -0.0334757,0.00637085 -0.0334757,0.00637085 0,0 -0.00135596,0 -0.00187251,-0.00029415z"/>
     <path id="_188254960" class="fil2" d="M0.430915 0.219206c0.000387417,-0.000717439 0.000724613,-0.00192991 0.000265452,-0.00335761 -0.000172185,-0.000566776 -0.000688741,-0.000990065 -0.00217384,-0.0012053 0,0 -0.000695915,-0.000308499 -0.00888906,-0.000947019 -0.00404635,-0.000358719 -0.00503642,-0.00218101 -0.00584712,-0.00365894 -0.000681567,-0.00250386 -0.000473509,-0.00522295 0.000272627,-0.00781291 0.00124117,-0.00413245 0.00214514,-0.00806401 0.00302759,-0.0122969 0.000530905,-0.00261865 0.000150662,-0.00577538 -0.00164293,-0.00736092 -0.00099724,-0.00119812 -0.00233885,-0.00167881 -0.00413962,-0.00099724 -0.00111203,0.000373068 -0.0020734,0.000961368 -0.00297737,0.00171468 -0.020777,-0.005266 -0.0505938,0.0192776 -0.0556374,0.0328372 -0.00480684,0.0127776 -0.000789182,0.017362 -0.000789182,0.017362 0.0108692,0.0128565 0.0319547,0.0019873 0.0462748,-0.0116942 0.00841555,0.0087384 0.0194426,0.005266 0.0293648,0.000107616 0,0 0.0022958,-0.00149227 0.00289128,-0.00269039zm-0.0336479 -0.0174338l0 0c-0.000688741,0.00253256 -0.00250386,0.00573951 -0.00214514,0.00807118 -0.00859491,0.00510816 -0.0202461,0.01333 -0.0231661,0.0100154 -0.00231015,-0.00338631 0.0100226,-0.0202102 0.0273918,-0.0239194 -0.000803531,0.00191556 -0.00154249,0.00384547 -0.00208057,0.00583278z"/>
     <path id="_188255152" class="fil2" d="M0.134843 0.366984c0.00431181,0.00106898 0.00890341,0.0017936 0.0128565,0.00196578 -0.00150662,0.00599779 -0.00281953,0.0123973 -0.00434768,0.0208703 -0.00152097,0.00615562 -0.00113355,0.0225778 0.00536644,0.0238477 0.00646412,0.0012053 0.0129498,-0.00277649 0.0144707,-0.00891776 0.00391721,-0.0130933 0.00609105,-0.0264161 0.00893928,-0.0397102 0.00190839,-0.000667218 0.00385982,-0.00134161 0.0058543,-0.00211644 0.00906842,-0.0035011 0.0170607,-0.00705242 0.0243714,-0.0106898 -0.00205905,0.00796357 -0.00363024,0.0162356 -0.00212362,0.024027 0.000839403,0.00449834 0.000681567,0.00834381 0.00657891,0.00911864 0.00432615,0.000552428 0.00964237,-0.00394591 0.0109983,-0.00822902 0.00099724,-0.00274062 0.00137031,-0.00401766 0.00200165,-0.0067224 0.0023532,-0.0109266 0.00449117,-0.0215519 0.00635651,-0.0320552 0.00352262,-0.00239624 0.00698068,-0.00486423 0.0103239,-0.00747571 0.0011766,-0.000681567 0.00336479,-0.00296302 0.00274062,-0.0043405 -0.000602648,-0.00130574 -0.00208775,-0.00185817 -0.00324282,-0.00115508 -0.00258995,0.00123399 -0.00541666,0.00241059 -0.00822185,0.0035298 0.00174338,-0.0108548 0.00315673,-0.0217097 0.00372351,-0.0329735 7.89182e-005,-0.00180077 0.000968542,-0.00620584 -0.00183664,-0.00704525 -0.00280518,-0.000839403 -0.00426159,0.000129139 -0.0058256,0.00274779l-0.00219536 0.0038383c-0.00955628,0.0164509 -0.0120601,0.0284536 -0.0149658,0.0404779 -0.00973564,0.00283388 -0.0197726,0.00535927 -0.0293361,0.00794204 0.00210927,-0.00785595 0.00333609,-0.0130215 0.00487141,-0.0212218 0.00166446,-0.00870253 0.00816445,-0.0231589 0.00446964,-0.0285612 -0.000394591,-0.000595474 -0.000789182,-0.000832229 -0.00149945,-0.000975716 -0.00070309,-0.000157836 -0.00181512,0.00063852 -0.00231733,0.00106181 -0.0121965,0.0110844 -0.0188973,0.0298598 -0.0249956,0.0449834 -0.00164293,0.004032 -0.00304194,0.00762637 -0.00426876,0.0109409 -0.0064139,0.00128422 -0.0127919,0.00231015 -0.0191484,0.00404635 -0.00271192,0.000631346 -0.00506512,0.00236755 -0.00513686,0.0055171 -5.73951e-005,0.00321412 0.00197296,0.00649999 0.00553863,0.00727483z"/>
     <path id="_188255224" class="fil2" d="M0.103971 0.245156c-0.0125408,0.0160921 -0.0181081,0.0355491 -0.0259569,0.0549343 -0.00586865,0.0146501 -0.00900385,0.0292428 -0.0114288,0.0447682 -0.00114073,0.00726765 -0.00243212,0.0144205 -0.000825054,0.0223626 0.000616997,0.00307781 0.00231733,0.00629911 0.0052947,0.00616997 0.00242494,-0.000200883 0.00564624,-0.00231733 0.00662913,-0.00467053 0.000473509,-0.00127704 0.0020447,-0.00324282 0.00248234,-0.00449117 0.00536644,-0.0145712 0.00855187,-0.0252467 0.0134807,-0.0398824 0.00331457,-0.00969977 0.0084873,-0.0217814 0.0112997,-0.0321699 0.00383112,-0.0144564 0.0104387,-0.028016 0.0109983,-0.0430965 0.000107616,-0.00330739 -0.000796357,-0.00710982 -0.00411092,-0.00822902 -0.00325,-0.00115508 -0.005883,0.00167163 -0.00786313,0.00430463z"/>
     <path id="_188255128" class="fil2" d="M0.0964094 0.246203c0.0160132,-0.00533057 0.0252467,-0.00395309 0.0374646,-0.000947019 0.00381677,0.000925496 0.00723178,0.0035585 0.00984326,0.00672957 0.00433333,0.00545971 0.00363741,0.012383 0.00075331,0.018596 -0.00683719,0.0146501 -0.0198587,0.0213223 -0.0339851,0.0263228 -0.00469922,0.00165728 -0.00634216,0.00500055 -0.00386699,0.00597626 0.00378808,0.00155684 0.00784878,0.000487858 0.0101159,0.000121965 0.0141551,-0.00226711 0.0230872,-0.0058256 0.0347169,-0.0159271 0.0138609,-0.0121391 0.0215734,-0.0302903 0.0127991,-0.0470137 -0.00639238,-0.0121606 -0.0195789,-0.0195 -0.0332605,-0.0197009 -0.0158913,-0.000208057 -0.0366252,0.00383112 -0.0430463,0.0178212 -0.00133444,0.0029702 -0.00175055,0.00468487 -0.000394591,0.00728918 0.00163576,0.00301324 0.0055458,0.00183664 0.00886037,0.000731787z"/>
     <path id="_188255320" class="fil4" d="M0.423059 0.144349c-0.000330022,-0.000968542 -0.0014277,-0.00193708 -0.0023245,-0.00247516 -0.0213294,-0.0151738 -0.0632853,-0.0281666 -0.0902036,-0.0391793l-0.00180795 -0.00341501 0 -5.73951e-005c-0.0032213,-0.0115723 -0.0231948,-0.0381821 -0.025756,-0.0373283 -0.0334829,0.00883167 -0.0552858,0.0155756 -0.0881302,0.02699l-0.00518708 0.00156402c-0.00152814,0.000222406 -0.00284106,0.00119812 -0.00349393,0.00264017l-0.00110486 0.00220254c-0.00603366,0.0144564 -0.0163289,0.0262798 -0.0214084,0.0412527 -6.45695e-005,2.86975e-005 -0.000731787,0.000889624 -0.000760485,0.000889624 -0.0372422,0.014686 -0.0680347,0.0385408 -0.0989993,0.0636225l-0.00162141 0.00122682c-0.000918321,0.000731787 -0.00154967,0.00175772 -0.00181512,0.0028841l-0.000279801 0.00140618c-0.000545253,0.0025756 0.000968542,0.00512969 0.00339348,0.00594757l0.00388852 0.00063852c0.0378808,-0.0111633 0.0745993,-0.0205044 0.113241,-0.0285541 0.000380242,-0.000286975 0.00191556,-0.00132009 0.00228145,-0.00163576 0.0118234,-0.00917604 0.0257202,-0.0138322 0.0306633,-0.0109266 0.00185817,0.00107616 0.00220254,0.00312086 0.00132009,0.00576103 0.0103813,-0.00188686 0.0206694,-0.00374503 0.0310651,-0.00540949 0.020612,-0.00336479 0.0408581,-0.00581843 0.0617643,-0.00818597 0.021846,-0.00245364 0.0428598,-0.00401766 0.0650573,-0.00559602 0.00213797,-0.000107616 0.00507229,-0.000380242 0.00726048,-0.000853752 0.00461313,-0.00101876 0.0206264,-0.00325717 0.023245,-0.010532 0.00040894,-0.000990065 0.00011479,-0.00175055 -0.000286975,-0.00287693z"/>
     <path id="_188255392" class="fil2" d="M0.206586 0.0970838l0.000774834 -0.00144205 -0.00277649 0.00166446 0.00317825 -0.000480684c0.0304194,-0.0075618 0.0608818,-0.0150734 0.090182,-0.0261865 0.00226711,-0.00075331 0.00358002,-0.00309933 0.00285541,-0.00545971 -0.000760485,-0.00228863 -0.00314238,-0.00360872 -0.00543101,-0.00285541 -0.0293719,0.00726048 -0.0582775,0.0163576 -0.0870827,0.0257847l-0.00458443 0.00129139c-0.00129856,0.000222406 -0.00251103,0.00099724 -0.00307781,0.00216666l-0.000903973 0.00183664c-0.00566776,0.0122539 -0.0134161,0.0234961 -0.0178857,0.0363526 -0.000172185,0.000652869 0.000107616,0.00128422 0.000681567,0.00157119 0.000365894,0.000129139 0.000731787,0.000129139 0.00106181,-0.000330022 0,0 0.0148582,-0.0230154 0.0230083,-0.0339133z"/>
     <path id="_188255296" class="fil2" d="M0.312373 0.0598702c0.00358002,0.0144564 0.00629194,0.0292858 0.00931953,0.0439001l0.000387417 0.00182947c0.000301324,0.00108333 0.00017936,0.00266887 0.00523013,0.00503642l0.000337196 0.000129139c0.00767659,0.00371633 0.0160132,0.00439072 0.0242709,0.00694481 0.0257058,0.00799944 0.0496898,0.0169459 0.0745634,0.025426 0.00218819,0.000889624 0.00465618,-0.000208057 0.00556732,-0.00238907 0.000825054,-0.00223841 -0.000258278,-0.00466335 -0.00248234,-0.0055171 -0.0305629,-0.0140474 -0.0648564,-0.0261937 -0.0978514,-0.0332102l-0.000459161 -0.000136313c-0.00623454,-0.0136457 -0.00949171,-0.0297091 -0.0176562,-0.0425154 -0.000129139,-0.000322847 -0.000530905,-0.00052373 -0.000846578,-0.000401766 -0.000380242,0.000208057 -0.000502207,0.000566776 -0.000380242,0.000903973z"/>
     <path id="_188255488" class="fil2" d="M0.082692 0.215203c0.0390789,-0.0118449 0.0785021,-0.0219608 0.118377,-0.0303979 0.000559602,-0.00052373 0.0011766,-0.000982891 0.0017936,-0.0014277 0.0117947,-0.00921191 0.0253041,-0.014277 0.0302329,-0.0113858 0.00196578,0.0011766 0.00228145,0.00333609 0.00118377,0.00617715 0.00834381,-0.00152814 0.0166517,-0.00303477 0.0250243,-0.0044266 0.0203466,-0.00339348 0.0403631,-0.00589735 0.0610612,-0.00824337 0.0216379,-0.00244647 0.0423863,-0.00395309 0.0643686,-0.0055171 0.00208057,-0.00017936 0.00397461,-0.000667218 0.00597626,-0.00134878 0.00421136,-0.00133444 0.00766942,-0.00553863 0.00709547,-0.0103526 -0.000538079,-0.00482119 -0.00553145,-0.00743266 -0.0100226,-0.00799227 -0.00188686,-0.000279801 -0.00315673,-0.000373068 -0.00500772,-0.000165011 -0.0427306,0.00502924 -0.0844497,0.0103383 -0.12624,0.0185386 -0.0532626,0.010367 -0.106152,0.0226567 -0.157571,0.0402124 0.025591,-0.0216021 0.0538438,-0.0395093 0.0822113,-0.0570005 0.000961368,-0.000459161 0.00140618,-0.00166446 0.000896798,-0.00275496 -0.00040894,-0.00101876 -0.00158554,-0.00149945 -0.00258278,-0.00101876 -0.0368189,0.0150447 -0.0697924,0.0388708 -0.100362,0.0646197l-0.00155684 0.00129139c-0.000947019,0.00075331 -0.00198013,0.00158554 -0.00242494,0.00390287l-2.86975e-005 0.000437638c-0.000473509,0.00261148 0.000903973,0.00512251 0.00366611,0.00629194 2.15232e-005,0 0.00118377,0.000746136 0.00391004,0.000559602z"/>
     <path id="_187404072" class="fil5" d="M0.217735 0.200804c0.00180795,-0.00298454 0.0100011,-0.010245 0.0179934,-0.024809 0.000660043,-0.00119095 0.00123399,-0.00282671 0.000200883,-0.00395309 -0.000975716,-0.00104746 -0.00259713,-0.000724613 -0.00405353,-0.000272627 -0.0117014,0.00396026 -0.0229078,0.00796357 -0.0281738,0.0209923 -0.0011766,0.00287693 -0.000990065,0.00880297 0.0028841,0.0107975 0.0038096,0.00214514 0.00886754,0.000860926 0.011149,-0.00275496z"/>
    </g>
   </g>
  </g>
 </g>
</svg>
